<?xml version="1.0" standalone="no"?>
<!DOCTYPE svg PUBLIC "-//W3C//DTD SVG 20010904//EN"
 "http://www.w3.org/TR/2001/REC-SVG-20010904/DTD/svg10.dtd">
<svg version="1.0" xmlns="http://www.w3.org/2000/svg"
 width="225.000000pt" height="225.000000pt" viewBox="0 0 225.000000 225.000000"
 preserveAspectRatio="xMidYMid meet">

<g transform="translate(0.000000,225.000000) scale(0.100000,-0.100000)"
fill="#000000" stroke="none">
<path d="M1040 2177 c-30 -13 -193 -85 -362 -161 l-306 -138 -143 -316 c-179
-398 -179 -399 -179 -475 1 -112 1 -112 463 -575 l422 -422 396 0 c317 0 399
3 408 13 6 9 12 84 13 203 l3 189 189 3 c119 1 194 7 203 13 10 9 13 91 13
408 l0 396 -422 422 c-319 318 -434 427 -468 442 -63 29 -158 28 -230 -2z
m205 -83 c17 -8 73 -57 125 -109 l95 -95 -425 0 -425 0 241 109 c133 60 250
111 260 114 28 8 93 -2 129 -19z m303 -310 c24 -10 122 -100 280 -257 l242
-241 0 -353 0 -353 -173 0 -172 0 -345 348 c-190 191 -462 465 -605 610 l-260
262 498 0 c427 0 503 -2 535 -16z m42 -1196 c0 -5 -231 -8 -514 -8 l-513 0
-42 46 c-74 79 -71 56 -71 611 l0 498 570 -570 c314 -313 570 -573 570 -577z
m-1230 620 l0 -423 -91 90 c-171 170 -171 180 -23 512 60 133 110 243 112 243
1 0 2 -190 2 -422z m1308 -870 l3 -158 -353 0 -353 0 -152 152 c-84 84 -153
156 -153 160 0 5 226 7 503 6 l502 -3 3 -157z"/>
</g>
</svg>
