<svg width="48" height="48" viewBox="0 0 48 48" fill="none"
  xmlns="http://www.w3.org/2000/svg">
  <path fill-rule="evenodd" clip-rule="evenodd" d="M10 11C10 9.89543 10.8954 9 12 9H36C37.1046 9 38 9.89543 38 11C38 12.1046 37.1046 13 36 13H12C10.8954 13 10 12.1046 10 11ZM18 20C18 18.8954 18.8954 18 20 18H36C37.1046 18 38 18.8954 38 20C38 21.1046 37.1046 22 36 22H20C18.8954 22 18 21.1046 18 20ZM18 29C18 27.8954 18.8954 27 20 27H36C37.1046 27 38 27.8954 38 29C38 30.1046 37.1046 31 36 31H20C18.8954 31 18 30.1046 18 29ZM10 38C10 36.8954 10.8954 36 12 36H36C37.1046 36 38 36.8954 38 38C38 39.1046 37.1046 40 36 40H12C10.8954 40 10 39.1046 10 38ZM14 20C14 21.1046 13.1046 22 12 22C10.8954 22 10 21.1046 10 20C10 18.8954 10.8954 18 12 18C13.1046 18 14 18.8954 14 20ZM14 29C14 30.1046 13.1046 31 12 31C10.8954 31 10 30.1046 10 29C10 27.8954 10.8954 27 12 27C13.1046 27 14 27.8954 14 29Z" fill="black"/>
</svg>
